<?xml version="1.0" encoding="utf-8"?>
<?xml-stylesheet type="text/xsl" href="rss1.xsl"?>
<rss version="2.0" xmlns:atom="http://www.w3.org/2005/Atom" xmlns:content="http://purl.org/rss/1.0/modules/content/" xmlns:dc="http://purl.org/dc/elements/1.1/" xmlns:media="http://search.yahoo.com/mrss/">
<channel>
 <title>Getty</title>
 <link>http://www.gettyimg.com/</link>
 <atom:link href="http://www.gettyimg.com/" rel="self" type="application/rss+xml" />

 
                <item>
                <title><![CDATA[【HD Live Performances】BDRiP - (G)I-DLE - [I AM FREE-TY] IN SEOUL 2023 (G)I-DLE WORLD TOUR 1080p]]></title>
                <link><![CDATA[https://sharemania.us/threads/g-i-dle-i-am-free-ty-in-seoul-2023-g-i-dle-world-tour-1080p.245462/]]></link>
                <description><![CDATA[<article>
<blockquote class="messageText SelectQuoteContainer ugc baseHtml">
<img src="https://i.imgur.com/qZHSc4X.jpg" class="bbCodeImage LbImage" alt="[​IMG]" data-url="https://i.imgur.com/qZHSc4X.jpg" style=""><br>
[BDRIP] 여자)아이들 – 2023 (G)I-DLE WORLD TOUR I am FREE-TY IN SEOUL [2024.02.16]<br>
<br>
DISK(BLU-RAY) 1.<br>
<br>
01. 덤디덤디 (DUMDi DUMDi)<br>
02. LATATA<br>
03. 달라($$$)<br>
04. 말리지 마<br>
05. Allergy<br>
06. Uh-Oh<br>
07. 퀸카 (Queencard)<br>
08. Drive (MIYEON SOLO)<br>
09. DAHLIA (MINNIE SOLO)<br>
10. Psycho (SOYEON SOLO)<br>
11. Boys (SHUHUA SOLO)<br>
12. Could It Be (YUQI SOLO)<br>
13. Nxde<br>
14. 싫다고 말해 (Nightmare Version)<br>
15. Lucid<br>
16. All Night<br>
17. THE BADDEST<br>
18. POP/STARS<br>
19. MY BAG<br>
20. TOMBOY<br>
<br>
DISK(BLU-RAY) 2.<br>
01. i’M THE TREND<br>
02. LIAR<br>
03. Reset<br>
04. What’s Your Name<br>
05. 사랑해<br>
06. LION<br>
07. Paradise<br>
<div class="ToggleTriggerAnchor bbCodeSpoilerContainer">
<button type="button" class="button bbCodeSpoilerButton ToggleTrigger Tooltip JsOnly" data-target="> .SpoilerTarget"><span>Spoiler: <span class="SpoilerTitle">MediaInfo</span></span></button>
<div class="SpoilerTarget bbCodeSpoilerText">Format : MPEG-4<br>
Format profile : Base Media<br>
Codes identifier : isom (isom/iso2/avc1/mp41)<br>
File size : 7,39 GiB<br>
Duration : 2 hours<br>
Total data rate : 6 570 kb/s<br>
Frame rate : 29,970 FPS<br>
Image<br>
Number of tracks : 1<br>
Format : AVC<br>
Format/Data : Advanced Video Codec<br>
Format profile : High@L4<br>
Format settings : CABAC / 4 Ref Frames<br>
Format settings, CABAC : yes<br>
Format settings, RefFrames : 4 frames<br>
Codes identifier : avc1<br>
Codes ID/Data : Advanced Video Coding<br>
Duration : 2 hours<br>
Source duration : 2 hours<br>
Data rate : 6 299 kb/s<br>
Width : 1 920 pixels<br>
Height : 1 080 pixels<br>
Aspect ratio : 16:9<br>
Frame rate : variable<br>
Frame rate : 29,970 FPS<br>
Color space : YUV<br>
Chroma subsampling : 4:2:0<br>
Bit depth : 8 bit<br>
Line shift type : continuous<br>
Bit/(pixel*frame) : 0.101<br>
Stream size : 7.08 GiB (96%)<br>
Source stream size : 7.08 GiB (96%)<br>
Marking date : 2024-03-09 15:45:20 UTC<br>
Color range : Limited<br>
Color primaries : BT.709<br>
Transfer characteristics : BT.709<br>
Matrix coefficients : BT.709<br>
Codec configuration box : avcC<br>
audio<br>
Number of tracks : 2<br>
Format : AAC LC<br>
Format/Data : Advanced Audio Codec Low Complexity<br>
Codec identifier : mp4a-40-2<br>
Duration : 2 hours<br>
Data rate mode : constant<br>
Data rate : 265 kb/s<br>
Number of channels : 2 channels<br>
Channel layout : L R<br>
Sampling rate : 48.0 kHz<br>
Frame rate : 46.875 FPS (1024 SPF)<br>
Compression mode : Lossy<br>
Stream size : 302 MiB (4%)<br>
Default : yes<br>
Alternate group : 1<br>
Marking date : 2024-03-09 15:45:20 UTC</div>
</div>
<div class="bbCodeBlock bbCodeVfcHH HiddenContent">
<div class="attribution type">Hidden Content:</div>
<blockquote>You must reply before you can see the hidden data contained here.</blockquote>
</div>Thanks to @symek04sawicki for helping me with the links.
<div class="messageTextEndMarker">&nbsp;</div>
</blockquote>
</article>]]></description>
                <author><![CDATA[boringnap]]></author>
                </item>

                </channel></rss>